<svg width="817" height="981" viewBox="0 0 817 981" fill="none" xmlns="http://www.w3.org/2000/svg">
<rect width="817" height="980.4" fill="#00A96C"/>
<path fill-rule="evenodd" clip-rule="evenodd" d="M281.567 281.01C281.567 280.303 280.852 279.819 280.195 280.082L164.029 326.549C163.649 326.7 163.4 327.068 163.4 327.477V706.59C163.4 707.297 164.115 707.781 164.772 707.518L280.938 661.051C281.318 660.9 281.567 660.532 281.567 660.123V281.01ZM317.567 657.319C317.567 657.778 317.879 658.178 318.324 658.289L498.191 703.256C498.822 703.414 499.433 702.936 499.433 702.286V323.081C499.433 322.622 499.121 322.222 498.676 322.111L318.809 277.144C318.178 276.986 317.567 277.463 317.567 278.114V657.319ZM536.062 319.349C535.682 319.5 535.433 319.868 535.433 320.277V699.39C535.433 700.097 536.148 700.581 536.805 700.318L652.972 653.851C653.351 653.7 653.6 653.332 653.6 652.923V273.81C653.6 273.103 652.886 272.619 652.229 272.882L536.062 319.349Z" fill="white"/>
</svg>
